<?xml version="1.0" encoding="utf-8"?>
<!-- Generator: Adobe Illustrator 26.3.0, SVG Export Plug-In . SVG Version: 6.00 Build 0)  -->
<svg version="1.1" id="Capa_1" xmlns="http://www.w3.org/2000/svg" xmlns:xlink="http://www.w3.org/1999/xlink" x="0px" y="0px"
	 viewBox="0 0 300 300" style="enable-background:new 0 0 300 300;" xml:space="preserve">
<style type="text/css">
	.st0{fill:#2196F3;}
	.st1{fill:#FFFFFF;}
	.st2{fill:#0D47A1;}
</style>
<path class="st0" d="M283,47.9H158.2v218.4H283c4.3,0,7.8-3.5,7.8-7.8V55.7C290.8,51.4,287.3,47.9,283,47.9z"/>
<path class="st1" d="M158.2,86.9h109.2v15.6H158.2V86.9z M158.2,118.1h109.2v15.6H158.2V118.1z M158.2,149.3h109.2v15.6H158.2V149.3
	z M158.2,180.5h109.2v15.6H158.2V180.5z M158.2,211.7h109.2v15.6H158.2V211.7z"/>
<path class="st2" d="M173.8,297.5L10,266.3V47.9l163.8-31.2V297.5z"/>
<path class="st1" d="M128.3,211.8h-21.2L93,141.7c-0.8-3.7-1.2-7.8-1.4-12.3h-0.2c-0.3,5-0.9,9.1-1.5,12.3l-14.4,70.1h-22
	L31.1,102.5H52l12,72.7c0.5,3.2,0.9,7.3,1.1,12.5h0.3c0.1-3.9,0.8-8.2,1.7-12.8l15.4-72.5H103l13.9,73.3c0.5,2.7,0.9,6.6,1.3,11.8
	h0.2c0.2-4,0.6-8.1,1.2-12.2l11.7-72.9h19.2L128.3,211.8z"/>
</svg>
