<?xml version="1.0" encoding="utf-8"?>
<!-- Generator: Adobe Illustrator 26.3.0, SVG Export Plug-In . SVG Version: 6.00 Build 0)  -->
<svg version="1.1" id="Capa_1" xmlns="http://www.w3.org/2000/svg" xmlns:xlink="http://www.w3.org/1999/xlink" x="0px" y="0px"
	 viewBox="0 0 300 300" style="enable-background:new 0 0 300 300;" xml:space="preserve">
<style type="text/css">
	.st0{fill:#D4272B;}
	.st1{fill:#FFFFFF;}
	.st2{fill:#BFC5C3;}
	.st3{fill:#F14541;}
</style>
<polygon class="st0" points="45.9,146.6 23,119.3 53.2,119.3 "/>
<path class="st1" d="M225,6.1H55.6c-7.2,0-13,5.8-13,13v265.8c0,7.2,5.8,13,13,13H255c7.2,0,13-5.8,13-13V49.1
	C251.2,32.3,241.8,22.9,225,6.1z"/>
<rect x="77.4" y="185.8" class="st2" width="151.4" height="12"/>
<rect x="77.4" y="153.1" class="st2" width="151.4" height="12"/>
<rect x="77.4" y="218.4" class="st2" width="151.4" height="12"/>
<rect x="77.4" y="251.1" class="st2" width="151.4" height="12"/>
<rect x="23" y="51.8" class="st3" width="155.7" height="67.5"/>
<g>
	<path class="st1" d="M64.4,90.2h-6.9V105h-7.7V67.1h13.9c8.1,0,14.1,2.7,14.1,11.4C77.8,87.1,72.4,90.2,64.4,90.2z M63.6,72.8h-6.1
		v11.7h6.4c3.3,0,6-1.3,6-6C69.9,73.3,66.7,72.8,63.6,72.8z"/>
	<path class="st1" d="M99.6,105h-13V67.1h13c12.8,0,19,5,19,18.8C118.6,99.8,112.7,105,99.6,105z M99.6,72.8h-5.2v26.5h5.8
		c6.1,0,10.4-2.3,10.4-13.3C110.6,74,105.7,72.8,99.6,72.8z"/>
	<path class="st1" d="M135.7,72.9v9.9h15.1v5.6h-15.1V105H128V67.1h23.6v5.7H135.7z"/>
</g>
</svg>
