<?xml version="1.0" encoding="utf-8"?>
<!-- Generator: Adobe Illustrator 26.3.0, SVG Export Plug-In . SVG Version: 6.00 Build 0)  -->
<svg version="1.1" id="Capa_1" xmlns="http://www.w3.org/2000/svg" xmlns:xlink="http://www.w3.org/1999/xlink" x="0px" y="0px"
	 viewBox="0 0 300 300" style="enable-background:new 0 0 300 300;" xml:space="preserve">
<style type="text/css">
	.st0{fill:#4CAF50;}
	.st1{fill:#FFFFFF;}
	.st2{fill:#2E7D32;}
</style>
<path class="st0" d="M289.6,35.8h-131V265h131c4.5,0,8.2-3.7,8.2-8.2V43.9C297.8,39.4,294.1,35.8,289.6,35.8z"/>
<path class="st1" d="M215.9,76.7h57.3v24.6h-57.3V76.7z M215.9,158.6h57.3v24.6h-57.3V158.6z M215.9,199.5h57.3v24.6h-57.3V199.5z
	 M215.9,117.6h57.3v24.6h-57.3V117.6z M158.6,76.7h40.9v24.6h-40.9V76.7z M158.6,158.6h40.9v24.6h-40.9V158.6z M158.6,199.5h40.9
	v24.6h-40.9V199.5z M158.6,117.6h40.9v24.6h-40.9V117.6z"/>
<path class="st2" d="M174.9,297.8L3,265V35.8L174.9,3V297.8z"/>
<path class="st1" d="M110.5,207.7l-19.7-37.3c-0.8-1.4-1.5-4-2.3-7.7h-0.3c-0.4,1.8-1.3,4.4-2.7,8l-19.8,37H34.9l36.5-57.3L38,93.1
	h31.4l16.4,34.4c1.3,2.7,2.4,5.9,3.4,9.7h0.3c0.6-2.2,1.8-5.6,3.6-10l18.2-34h28.8l-34.4,56.8l35.3,57.8L110.5,207.7L110.5,207.7z"
	/>
</svg>
